<?xml version="1.0" encoding="utf-8"?>
<!-- Generator: Adobe Illustrator 19.2.1, SVG Export Plug-In . SVG Version: 6.00 Build 0)  -->
<svg version="1.1" id="layer" xmlns="http://www.w3.org/2000/svg" xmlns:xlink="http://www.w3.org/1999/xlink" x="0px" y="0px"
	 viewBox="0 0 652 652" style="enable-background:new 0 0 652 652;" xml:space="preserve">
<style type="text/css">
	.st0{fill:#0070BD;}
</style>
<g>
	<path class="st0" d="M78.8,278.8c0,0,0-0.6-0.5-1.2c-0.5-0.6-1.1-0.6-1.1-0.6s-6.9-2.2-25.6-2.3c-18.8-0.1-25.3,2.1-25.3,2.1
		s-0.5,0-1.2,0.9c-0.5,0.8-0.6,1.3-0.6,1.3s-4.5,18.4-4.3,42.8c0.3,24.4,4.2,42.3,4.2,42.3s0.1,1,0.6,1.5c0.4,0.5,1.2,0.8,1.2,0.8
		s10.3,2.5,25.4,2.4c15.1-0.1,25.5-2.3,25.5-2.3s1-0.5,1.3-0.9s0.5-1.4,0.5-1.4s4.1-16.7,4.1-42.2C82.9,296.2,78.8,278.8,78.8,278.8
		 M59.8,344c0,15.7-8.1,23.7-8.1,23.7s-8.1-9.9-8.1-23.7s7.7-22,7.7-22L36,324.7l12.6-7.1c0,0-5.1-8.5-5.1-19.1
		c0-13.8,8.3-22.5,8.3-22.5s8.1,9.6,8.1,22.5c0,14.2-7.4,22.9-7.4,22.9l15.4-2.4l-13.1,7.2C54.7,326.2,59.8,334.5,59.8,344"/>
</g>
<g>
	<path class="st0" d="M177.3,295.8c1.8,0,3.3,1.5,3.3,3.3v3.9c0,1.8-1.5,3.3-3.3,3.3h-34.9c0,0-1.9-0.3-1.9,2.1v3.9
		c0,2.3,1.9,2.1,1.9,2.1h24.9c1.8,0,3.3,1.5,3.3,3.3v3.9c0,1.8-1.5,3.3-3.3,3.3h-24.9c0,0-1.9-0.3-1.9,2.1v9.8
		c0,1.8-1.5,3.3-3.2,3.3h-31.9c-1.8,0-3.2-1.5-3.2-3.3v-37.6c0-1.8,1.4-3.3,3.2-3.3L177.3,295.8z"/>
	<path class="st0" d="M242.2,340.1c15.9,0,26.2-9.3,26.2-19.5l0-4V299c0-1.7-1.4-3.1-3.1-3.1h-24.7c-1.7,0-3.1,1.4-3.1,3.1v16.7v2.8
		c0,5.3-4.3,9.6-9.6,9.6c-5.3,0-9.6-4.3-9.6-9.6v-2.8V299c0-1.7-1.4-3.1-3.1-3.1h-24.7c-1.7,0-3.1,1.4-3.1,3.1v17.6l0,4
		c0,10.2,10.3,19.5,26.2,19.5H242.2z"/>
	<path class="st0" d="M318.8,319.9h-10.5c0,0-1.9,0.3-1.9-2.1v-9.4c0-2.3,1.9-2.1,1.9-2.1h10.5c5.2,0,9.4,3,9.4,6.8
		C328.2,316.8,324,319.9,318.8,319.9L318.8,319.9z M353.5,310.9c0-9.5-10.9-15.1-22.9-15.1l-52.8,0c-1.8,0-3.2,1.5-3.2,3.3v37.6
		c0,1.8,1.4,3.3,3.2,3.3h25.4c1.8,0,3.2-1.5,3.2-3.3l0-6c0-1,0.8-1.9,1.9-1.9c0.6,0,1.1,0.3,1.5,0.7l0,0l8.1,8.4
		c1.7,1.7,3.5,2.1,5.3,2.1h28.5c1.8,0,1.8-1.5,0.1-3.3l-8.6-8.9c-0.3-0.4-0.5-0.8-0.5-1.3c0-0.8,0.3-1.4,1.2-1.8
		C349.8,322.1,353.5,317,353.5,310.9"/>
	<path class="st0" d="M415.4,340.1c15.9,0,26.2-9.3,26.2-19.5l0-4V299c0-1.7-1.4-3.1-3.1-3.1h-24.7c-1.7,0-3.1,1.4-3.1,3.1v16.7v2.8
		c0,5.3-4.3,9.6-9.6,9.6s-9.6-4.3-9.6-9.6v-2.8V299c0-1.7-1.4-3.1-3.1-3.1h-24.7c-1.7,0-3.1,1.4-3.1,3.1v17.6l0,4
		c0,10.2,10.2,19.5,26.2,19.5H415.4z"/>
	<path class="st0" d="M480.6,326.5l0,10.5c0,1.7-1.4,3.1-3.1,3.1h-27.1c-1.7,0-3.1-1.4-3.1-3.1v-38c0-1.7,1.4-3.1,3.1-3.1h27.1
		c1.7,0,2.3,0.4,3.3,1.7l8.8,11.7c0.1,0.1,0.2,0.2,0.3,0.2c0.3,0,0.5-0.2,0.5-0.5v-10c0-1.7,1.4-3.1,3.1-3.1h27.1
		c1.7,0,3.1,1.4,3.1,3.1v38c0,1.7-1.4,3.1-3.1,3.1h-27.1c-1.7,0-2.2-0.6-2.8-1.6l-9.2-12.3c-0.1-0.1-0.2-0.2-0.4-0.2
		C480.8,326.1,480.6,326.3,480.6,326.5"/>
	<path class="st0" d="M573.6,325.2c0,6-2.1,6.6-4.7,6.6s-4.7-0.6-4.7-6.6v-14.5c0-6,2.1-6.6,4.7-6.6s4.7,0.6,4.6,6.9L573.6,325.2z
		 M585.3,340.1c12.2,0,22.1-9.9,22.1-22.1c0-12.2-9.9-22.1-22.1-22.1h-32.8c-12.2,0-22.1,9.9-22.1,22.1c0,12.2,9.9,22.1,22.1,22.1
		H585.3z"/>
	<path class="st0" d="M602.2,297c0-5.1,4.1-8.8,9-8.8c4.8,0,8.9,3.7,8.9,8.8c0,5.1-4.1,8.9-8.9,8.9
		C606.3,305.9,602.2,302.1,602.2,297 M611.2,304.4c4,0,7.2-3.1,7.2-7.4c0-4.2-3.2-7.3-7.2-7.3c-4,0-7.2,3.1-7.2,7.3
		C604,301.3,607.1,304.4,611.2,304.4 M609.3,302.1h-1.5V292h3.9c2.4,0,3.6,0.9,3.6,2.9c0,1.8-1.2,2.6-2.6,2.8l2.9,4.5h-1.7l-2.7-4.4
		h-1.8V302.1z M611.1,296.4c1.3,0,2.5-0.1,2.5-1.7c0-1.3-1.1-1.5-2.2-1.5h-2.1v3.2H611.1z"/>
</g>
</svg>
