<?xml version="1.0" encoding="UTF-8" standalone="no"?>
<svg
   xmlns:dc="http://purl.org/dc/elements/1.1/"
   xmlns:cc="http://creativecommons.org/ns#"
   xmlns:rdf="http://www.w3.org/1999/02/22-rdf-syntax-ns#"
   xmlns:svg="http://www.w3.org/2000/svg"
   xmlns="http://www.w3.org/2000/svg"
   xmlns:sodipodi="http://sodipodi.sourceforge.net/DTD/sodipodi-0.dtd"
   xmlns:inkscape="http://www.inkscape.org/namespaces/inkscape"
   version="1.1"
   id="svg2"
   xml:space="preserve"
   width="258.66666"
   height="258.66666"
   viewBox="0 0 258.66666 258.66666"
   sodipodi:docname="icom.eps"><metadata
     id="metadata8"><rdf:RDF><cc:Work
         rdf:about=""><dc:format>image/svg+xml</dc:format><dc:type
           rdf:resource="http://purl.org/dc/dcmitype/StillImage" /></cc:Work></rdf:RDF></metadata><defs
     id="defs6" /><sodipodi:namedview
     pagecolor="#ffffff"
     bordercolor="#666666"
     borderopacity="1"
     objecttolerance="10"
     gridtolerance="10"
     guidetolerance="10"
     inkscape:pageopacity="0"
     inkscape:pageshadow="2"
     inkscape:window-width="640"
     inkscape:window-height="480"
     id="namedview4" /><g
     id="g10"
     inkscape:groupmode="layer"
     inkscape:label="ink_ext_XXXXXX"
     transform="matrix(1.3333333,0,0,-1.3333333,0,258.66667)"><g
       id="g12"
       transform="scale(0.1)"><path
         d="M 2.59766,1933.23 H 1930.16 V 5.66797 H 2.59766 V 1933.23"
         style="fill:#ffffff;fill-opacity:1;fill-rule:evenodd;stroke:none"
         id="path14" /><path
         d="m 330.285,628.414 h -58.957 v 407.766 h 58.957 V 628.414"
         style="fill:#231f20;fill-opacity:1;fill-rule:evenodd;stroke:none"
         id="path16" /><path
         d="M 732.621,753.609 C 701.75,712.113 655.57,684.977 602.957,684.977 c -81.367,0 -147.328,65.961 -147.328,147.328 0,81.363 65.961,147.32 147.328,147.32 50.766,0 95.543,-25.891 126.832,-64.977 h 64.641 c -36.403,71.704 -108.098,121.532 -191.473,121.532 -112.605,0 -203.887,-91.27 -203.887,-203.875 0,-112.61 91.282,-203.891 203.887,-203.891 84.527,0 157.047,51.91 192.754,125.195 h -63.09"
         style="fill:#231f20;fill-opacity:1;fill-rule:evenodd;stroke:none"
         id="path18" /><path
         d="m 875.625,832.305 c 0,112.605 91.281,203.875 203.875,203.875 112.61,0 203.89,-91.27 203.89,-203.875 0,-112.61 -91.28,-203.891 -203.89,-203.891 -112.594,0 -203.875,91.281 -203.875,203.891 z M 1079.5,684.977 c 81.37,0 147.33,65.961 147.33,147.328 0,81.363 -65.96,147.32 -147.33,147.32 -81.359,0 -147.324,-65.957 -147.324,-147.32 0,-81.367 65.965,-147.328 147.324,-147.328"
         style="fill:#231f20;fill-opacity:1;fill-rule:evenodd;stroke:none"
         id="path20" /><path
         d="m 1607.56,630.965 h -59.32 l -120.63,292.34 V 628.414 h -58.96 v 407.766 h 78.73 l 129.81,-281.641 129.7,281.641 h 82.97 V 628.414 h -58.96 v 294.891 l -123.34,-292.34"
         style="fill:#231f20;fill-opacity:1;fill-rule:evenodd;stroke:none"
         id="path22" /><path
         d="m 300.832,1076.5 c -92.254,0 -167.031,74.79 -167.031,167.04 0,92.25 74.777,167.03 167.031,167.03 92.246,0 167.035,-74.78 167.035,-167.03 0,-92.25 -74.789,-167.04 -167.035,-167.04 z m 119.32,167.04 c 0,65.9 -53.422,119.32 -119.32,119.32 -65.906,0 -119.328,-53.42 -119.328,-119.32 0,-65.91 53.422,-119.33 119.328,-119.33 65.898,0 119.32,53.42 119.32,119.33"
         style="fill:#ed1c24;fill-opacity:1;fill-rule:evenodd;stroke:none"
         id="path24" /></g></g></svg>
