<?xml version="1.0" encoding="UTF-8" standalone="no"?>
<svg
   xmlns:dc="http://purl.org/dc/elements/1.1/"
   xmlns:cc="http://creativecommons.org/ns#"
   xmlns:rdf="http://www.w3.org/1999/02/22-rdf-syntax-ns#"
   xmlns:svg="http://www.w3.org/2000/svg"
   xmlns="http://www.w3.org/2000/svg"
   xmlns:sodipodi="http://sodipodi.sourceforge.net/DTD/sodipodi-0.dtd"
   xmlns:inkscape="http://www.inkscape.org/namespaces/inkscape"
   version="1.1"
   id="svg2"
   xml:space="preserve"
   width="258.66666"
   height="258.66666"
   viewBox="0 0 258.66666 258.66666"
   sodipodi:docname="JL_Audio.eps"><metadata
     id="metadata8"><rdf:RDF><cc:Work
         rdf:about=""><dc:format>image/svg+xml</dc:format><dc:type
           rdf:resource="http://purl.org/dc/dcmitype/StillImage" /></cc:Work></rdf:RDF></metadata><defs
     id="defs6" /><sodipodi:namedview
     pagecolor="#ffffff"
     bordercolor="#666666"
     borderopacity="1"
     objecttolerance="10"
     gridtolerance="10"
     guidetolerance="10"
     inkscape:pageopacity="0"
     inkscape:pageshadow="2"
     inkscape:window-width="640"
     inkscape:window-height="480"
     id="namedview4" /><g
     id="g10"
     inkscape:groupmode="layer"
     inkscape:label="ink_ext_XXXXXX"
     transform="matrix(1.3333333,0,0,-1.3333333,0,258.66667)"><g
       id="g12"
       transform="scale(0.1)"><path
         d="M 2.59766,1933.23 H 1930.16 V 5.66797 H 2.59766 V 1933.23"
         style="fill:#ffffff;fill-opacity:1;fill-rule:evenodd;stroke:none"
         id="path14" /><path
         d="m 1233.54,1849.44 h -216.65 l 0.49,-1475.042 h 884.43 V 625.879 L 1429.92,850.52 Z m -320.962,0 H 700.645 L 495.777,850.52 30.9453,625.879 V 374.398 l 882.9027,-0.261 -1.27,1475.303"
         style="fill:#231f20;fill-opacity:1;fill-rule:evenodd;stroke:none"
         id="path16" /><path
         d="m 593.625,89.457 h 36.082 l 29.266,49.063 h 188.773 l 29.266,-49.063 h 36.297 L 773.16,321.793 h -39.605 z m 998.945,86.91 c 0,-58.746 20.24,-86.91 83.82,-86.91 h 135.75 c 63.81,0 84.05,28.164 84.05,86.91 v 63.582 c 0,58.742 -20.24,86.91 -84.05,86.91 h -135.75 c -63.58,0 -83.82,-28.168 -83.82,-86.91 z m -370.55,-86.91 h 189.65 c 79.87,0 101.43,30.805 101.43,116.168 0,91.75 -21.56,116.168 -100.55,116.168 H 1222.02 Z M 918.586,324.215 V 150.402 c 0,-47.304 24.203,-60.945 83.824,-60.945 h 108.91 c 60.07,0 84.05,13.641 84.05,60.945 v 173.813 h -31.68 V 150.621 c 0,-22.437 -8.14,-35.418 -51.49,-35.418 h -110.67 c -43.124,0 -51.042,12.981 -51.042,35.418 V 324.215 Z M 1863.54,162.77 c 0,-40.485 -24.64,-49.504 -55.22,-49.504 h -129.37 c -30.59,0 -55.23,9.019 -55.23,49.504 v 87.128 c 0,40.485 24.64,49.504 55.23,49.504 h 129.37 c 30.58,0 55.22,-9.019 55.22,-49.504 z m -382.36,29.902 c 0,-69.524 -26.85,-77.887 -65.57,-77.887 h -161.93 v 181.074 h 167.21 c 39.16,0 60.29,-12.32 60.29,-79.425 z M 37.1641,177.684 v -25.743 c 0,-43.562 22,-62.484 77.8869,-62.484 h 60.726 c 57.864,0 81.184,14.082 81.184,67.77 v 166.988 h -31.68 V 150.844 c 0,-29.703 -15.402,-35.641 -52.148,-35.641 H 117.25 c -40.9219,0 -50.1641,7.477 -50.1641,44 v 18.481 z M 281.074,321.793 V 89.457 h 214.739 v 25.746 H 312.977 v 206.59 z M 833.883,164.176 H 675.688 l 79.21,132.012 z M 1535.83,321.793 V 89.457 h 31.91 v 232.336 h -31.91"
         style="fill:#231f20;fill-opacity:1;fill-rule:evenodd;stroke:none"
         id="path18" /></g></g></svg>
