<?xml version="1.0" encoding="UTF-8" standalone="no"?>
<svg
   xmlns:dc="http://purl.org/dc/elements/1.1/"
   xmlns:cc="http://creativecommons.org/ns#"
   xmlns:rdf="http://www.w3.org/1999/02/22-rdf-syntax-ns#"
   xmlns:svg="http://www.w3.org/2000/svg"
   xmlns="http://www.w3.org/2000/svg"
   xmlns:sodipodi="http://sodipodi.sourceforge.net/DTD/sodipodi-0.dtd"
   xmlns:inkscape="http://www.inkscape.org/namespaces/inkscape"
   version="1.1"
   id="svg2"
   xml:space="preserve"
   width="242.81332"
   height="33.119999"
   viewBox="0 0 242.81332 33.119999"
   sodipodi:docname="lowrance.eps"><metadata
     id="metadata8"><rdf:RDF><cc:Work
         rdf:about=""><dc:format>image/svg+xml</dc:format><dc:type
           rdf:resource="http://purl.org/dc/dcmitype/StillImage" /></cc:Work></rdf:RDF></metadata><defs
     id="defs6" /><sodipodi:namedview
     pagecolor="#ffffff"
     bordercolor="#666666"
     borderopacity="1"
     objecttolerance="10"
     gridtolerance="10"
     guidetolerance="10"
     inkscape:pageopacity="0"
     inkscape:pageshadow="2"
     inkscape:window-width="640"
     inkscape:window-height="480"
     id="namedview4" /><g
     id="g10"
     inkscape:groupmode="layer"
     inkscape:label="ink_ext_XXXXXX"
     transform="matrix(1.3333333,0,0,-1.3333333,0,33.12)"><g
       id="g12"
       transform="scale(0.1)"><path
         d="m 1800.25,223.906 h -4.23 v 8.047 h 6.48 c 2.81,0 5.9,-0.449 5.9,-3.945 0,-4.61 -4.94,-4.102 -8.15,-4.102 z m 10.98,4.043 c 0,1.914 -0.86,3.946 -2.54,4.922 -1.72,0.996 -3.63,1.094 -5.55,1.094 h -9.9 V 211.25 h 2.78 v 10.488 h 5.11 l 6.47,-10.488 h 3.28 l -6.84,10.488 c 4.05,0.098 7.19,1.758 7.19,6.211 z m -10.41,-23.242 c -9.9,0 -17.87,7.988 -17.87,17.949 0,9.805 7.97,17.813 17.87,17.813 9.84,0 17.79,-8.008 17.79,-17.813 0,-9.961 -7.95,-17.949 -17.79,-17.949 z m 0,38.184 c -11.27,0 -20.39,-9.102 -20.39,-20.235 0,-11.289 9.12,-20.39 20.39,-20.39 11.21,0 20.23,9.101 20.23,20.39 0,11.133 -9.02,20.235 -20.23,20.235 z M 1475.59,57.6758 c -36.51,0 -43.19,31.1133 -43.19,64.2192 0,45.546 15.2,68.828 40.45,68.828 22.5,0 36.76,-14.102 38.93,-38.692 h 68.06 c -5.74,60.625 -43.14,96.348 -110.05,96.348 -61.14,0 -109.15,-47.52 -109.15,-123.848 C 1360.64,47.8125 1404.41,0 1476.8,0 c 57.77,0 98.24,36.6992 104.63,97.6367 h -69.09 c -2.73,-22.5976 -13.67,-39.9609 -36.75,-39.9609 z m -195.47,111.5232 2.71,-52.285 -78.14,125.391 H 1137.5 V 12.5 h 68.73 v 72.7734 l -2.75,52.3636 78.14,-125.137 h 67.23 v 229.805 h -68.73 z M 992.207,90.7031 1014.41,173.047 1037.5,90.7031 Z M 978.516,242.305 902.527,19.6875 c 0.305,-0.0312 0.539,-0.1562 0.871,-0.1562 V 12.5 h 66.934 l 8.184,30.3125 h 71.444 L 1058.52,12.5 h 71.44 L 1051.5,242.305 Z M 795.117,143.047 h -28.301 v 45.664 h 33.477 c 16.738,0 28.887,-7.676 28.887,-23.965 0,-15.957 -11.856,-21.699 -34.063,-21.699 z M 895.801,59.7266 c 0,46.2894 -14.043,52.0504 -37.129,60.9764 25.547,7.324 36.797,29.668 36.797,56.192 0,44.668 -24.024,65.41 -96.992,65.41 H 695.098 V 12.5 h 71.718 v 80.1172 h 21.914 c 33.438,0 38.301,-9.9024 38.301,-39.9024 0,-20.4296 1.836,-35.1367 3.653,-40.2148 h 69.394 l 2.449,7.1875 c -7.5,0.7813 -6.726,11.2109 -6.726,40.0391 z M 591.172,100.273 h -0.606 L 564.414,242.305 H 505.117 L 478.965,100.273 h -0.606 L 453.73,242.305 H 384.375 L 438.828,12.5 h 70.547 l 24.941,133.438 h 0.586 L 560.156,12.5 h 70.547 l 54.414,229.805 H 615.801 Z M 279.512,62.5977 c -34.356,0 -42.871,36.6992 -42.871,66.0743 0,29.062 9.746,63.535 42.265,63.535 31.602,0.938 43.789,-32.266 43.789,-63.535 0,-37.9689 -12.187,-66.0743 -43.183,-66.0743 z m 0,185.7813 c -68.106,0 -114.629,-46.934 -114.629,-119.063 0,-78.1832 45.937,-122.89022 114.629,-122.89022 64.804,0 114.941,44.04302 114.941,122.24622 0,60.664 -36.797,119.707 -114.941,119.707 z M 71.7773,242.305 H 0 V 12.5 H 170.293 V 66.1328 H 71.7773 Z M 1660.53,102.188 h 90.25 v 53.613 h -90.25 v 32.91 h 106.7 v 53.594 h -178.5 V 12.5 h 182.75 v 53.6328 h -110.95 v 36.0552"
         style="fill:#24427f;fill-opacity:1;fill-rule:nonzero;stroke:none"
         id="path14" /></g></g></svg>
